<?xml version="1.0" encoding="utf-8"?>
<!-- Generator: Adobe Illustrator 27.5.0, SVG Export Plug-In . SVG Version: 6.00 Build 0)  -->
<svg version="1.1" xmlns="http://www.w3.org/2000/svg" xmlns:xlink="http://www.w3.org/1999/xlink" x="0px" y="0px"
	 viewBox="0 0 800 800" style="enable-background:new 0 0 800 800;" xml:space="preserve">
<g id="Layer_1">
	<g>
		<g>
			<radialGradient id="SVGID_1_" cx="400.3244" cy="348.4497" r="158.6333" gradientUnits="userSpaceOnUse">
				<stop  offset="0" style="stop-color:#8DC63F"/>
				<stop  offset="0.0725" style="stop-color:#80BD40"/>
				<stop  offset="0.3346" style="stop-color:#58A943"/>
				<stop  offset="0.5836" style="stop-color:#349D44"/>
				<stop  offset="0.8118" style="stop-color:#0E9644"/>
				<stop  offset="1" style="stop-color:#009444"/>
			</radialGradient>
			<path style="fill:url(#SVGID_1_);" d="M320.623,273.724c-4.689-6.857-3.274,49.72,15.173,69.096
				c9.023,9.422,23.842,23.622,43.482,28.266c-3.673-29.682-24.728-57.726-51.887-66.75c34.28,7.829,62.326,42.642,61.663,76.881
				c0.443,14.156,2.211,34.771,3.141,28.001C408.736,286.241,352.163,320.17,320.623,273.724L320.623,273.724z"/>
			
				<radialGradient id="SVGID_00000046319199184723781850000002092473833672385981_" cx="400.3267" cy="348.4495" r="158.633" gradientUnits="userSpaceOnUse">
				<stop  offset="0" style="stop-color:#8DC63F"/>
				<stop  offset="0.0725" style="stop-color:#80BD40"/>
				<stop  offset="0.3346" style="stop-color:#58A943"/>
				<stop  offset="0.5836" style="stop-color:#349D44"/>
				<stop  offset="0.8118" style="stop-color:#0E9644"/>
				<stop  offset="1" style="stop-color:#009444"/>
			</radialGradient>
			<path style="fill:url(#SVGID_00000046319199184723781850000002092473833672385981_);" d="M323.674,332.69
				c-12.562-14.156-37.201-34.371-72.057-22.338c-16.942,5.838,27.69-10.13,63.476,33.087c9.997,12.076,19.376,33.486,63.478,33.133
				C336.77,358.612,337.785,348.57,323.674,332.69L323.674,332.69z"/>
			
				<radialGradient id="SVGID_00000065778589965066676190000006623660588069278900_" cx="400.3253" cy="348.449" r="158.6329" gradientUnits="userSpaceOnUse">
				<stop  offset="0" style="stop-color:#8DC63F"/>
				<stop  offset="0.0725" style="stop-color:#80BD40"/>
				<stop  offset="0.3346" style="stop-color:#58A943"/>
				<stop  offset="0.5836" style="stop-color:#349D44"/>
				<stop  offset="0.8118" style="stop-color:#0E9644"/>
				<stop  offset="1" style="stop-color:#009444"/>
			</radialGradient>
			<path style="fill:url(#SVGID_00000065778589965066676190000006623660588069278900_);" d="M476.328,332.159
				c12.563-14.156,37.201-34.372,72.057-22.34c16.941,5.839-27.689-10.129-63.477,33.089c-9.996,12.076-19.375,33.486-63.477,33.088
				C463.234,358.081,462.217,348.04,476.328,332.159L476.328,332.159z"/>
			
				<radialGradient id="SVGID_00000080189229660864807320000013387285631013118612_" cx="400.3256" cy="348.4493" r="158.6337" gradientUnits="userSpaceOnUse">
				<stop  offset="0" style="stop-color:#8DC63F"/>
				<stop  offset="0.0725" style="stop-color:#80BD40"/>
				<stop  offset="0.3346" style="stop-color:#58A943"/>
				<stop  offset="0.5836" style="stop-color:#349D44"/>
				<stop  offset="0.8118" style="stop-color:#0E9644"/>
				<stop  offset="1" style="stop-color:#009444"/>
			</radialGradient>
			<path style="fill:url(#SVGID_00000080189229660864807320000013387285631013118612_);" d="M478.938,273.724
				c4.647-6.857,3.273,49.72-15.217,69.096c-8.981,9.422-23.842,23.622-43.482,28.266c3.672-29.638,24.727-57.726,51.932-66.75
				c-34.324,7.829-62.371,42.642-61.705,76.881c-0.223,13.713-2.168,34.771-3.098,28.001
				C390.779,286.241,447.355,320.17,478.938,273.724L478.938,273.724z"/>
			
				<radialGradient id="SVGID_00000097502460092453492330000008441327343372549770_" cx="400.3252" cy="348.45" r="158.6348" gradientUnits="userSpaceOnUse">
				<stop  offset="0" style="stop-color:#8DC63F"/>
				<stop  offset="0.0725" style="stop-color:#80BD40"/>
				<stop  offset="0.3346" style="stop-color:#58A943"/>
				<stop  offset="0.5836" style="stop-color:#349D44"/>
				<stop  offset="0.8118" style="stop-color:#0E9644"/>
				<stop  offset="1" style="stop-color:#009444"/>
			</radialGradient>
			<path style="fill:url(#SVGID_00000097502460092453492330000008441327343372549770_);" d="M411.435,307.121
				c0,6.326-5.131,11.458-11.455,11.458c-6.283,0-11.413-5.132-11.413-11.458c0-6.326,5.13-11.456,11.413-11.456
				C406.305,295.665,411.435,300.795,411.435,307.121L411.435,307.121z"/>
		</g>
		<g>
			<text transform="matrix(1 0 0 1 220.9204 484.3896)"><tspan x="0" y="0" style="fill:#383626; font-family:'Roboto-Light'; font-size:79.2986px;">Green</tspan><tspan x="200.623" y="0" style="fill:#383626; font-family:'Roboto-Regular'; font-size:79.2986px;"> </tspan><tspan x="217.434" y="0" style="fill:#383626; font-family:'Roboto-Medium'; font-size:79.2986px;">Life</tspan></text>
			<text transform="matrix(1 0 0 1 259.7637 519.6465)" style="font-family:'Sansation-Light'; font-size:33.9851px;">Its for your tag line</text>
		</g>
	</g>
</g>
<g id="Layer_2" style="display:none;">
</g>
</svg>
